<svg xmlns="http://www.w3.org/2000/svg" width="375" viewBox="0 0 375 375" height="375" version="1.0"><g fill="#F00"><g><g><path d="M 57.890625 -52.738281 C 59.710938 -63.144531 53.546875 -70.117188 41.222656 -70.417969 C 29.601562 -70.519531 22.429688 -64.660156 21.417969 -54.859375 C 19.800781 -37.886719 41.828125 -31.722656 41.019531 -17.882812 C 40.613281 -10.507812 36.472656 -6.164062 29.402344 -6.265625 C 21.824219 -6.464844 16.265625 -13.941406 19.5 -26.167969 C 19.5 -29.097656 11.921875 -30.109375 10.507812 -27.785156 C 5.757812 -13.941406 10.101562 0.808594 28.492188 0.910156 C 42.230469 1.011719 51.527344 -5.65625 52.234375 -18.1875 C 53.242188 -34.25 31.722656 -41.421875 32.734375 -54.253906 C 33.136719 -61.023438 37.382812 -63.144531 41.019531 -63.042969 C 46.070312 -63.042969 49.605469 -60.316406 49 -53.042969 C 49.507812 -50.113281 56.882812 -49.707031 57.890625 -52.738281 Z M 57.890625 -52.738281" transform="translate(37.525 193.319)"/></g></g></g><g fill="#F00"><g><g><path d="M 31.320312 -41.523438 C 29.402344 -34.753906 27.378906 -27.378906 25.257812 -21.015625 C 22.226562 -12.425781 15.863281 -6.464844 11.921875 -6.464844 C 8.183594 -6.464844 9.195312 -11.71875 10.609375 -17.480469 C 12.425781 -25.5625 15.054688 -34.554688 16.46875 -40.210938 C 16.46875 -42.9375 7.171875 -43.847656 5.960938 -41.324219 C 3.636719 -32.332031 0.101562 -22.429688 -1.71875 -12.324219 C -3.03125 -5.253906 -1.011719 0.808594 6.972656 0.910156 C 13.742188 1.113281 20.105469 -2.222656 25.964844 -11.921875 C 24.449219 -5.859375 26.570312 0.503906 32.128906 0.503906 C 42.636719 0.605469 50.113281 -13.4375 53.546875 -20.308594 C 54.152344 -21.519531 50.617188 -23.640625 50.011719 -22.328125 C 46.375 -13.839844 40.3125 -6.363281 36.472656 -6.464844 C 31.320312 -6.464844 39.199219 -30.714844 41.828125 -40.109375 C 41.121094 -43.039062 32.53125 -43.746094 31.320312 -41.523438 Z M 31.320312 -41.523438" transform="translate(97.636 193.319)"/></g></g></g><g fill="#F00"><g><g><path d="M 31.421875 -43.039062 C 24.753906 -43.140625 17.882812 -36.574219 14.246094 -32.332031 C 15.15625 -35.261719 15.558594 -36.976562 16.46875 -40.210938 C 15.457031 -43.34375 7.578125 -43.847656 5.960938 -41.625 C 1.917969 -26.875 -1.515625 -15.355469 -4.75 -1.917969 C -4.546875 1.414062 5.457031 1.113281 6.566406 -1.113281 C 8.6875 -10.203125 9.800781 -15.355469 12.628906 -24.855469 C 16.367188 -29.90625 21.722656 -34.652344 25.257812 -34.753906 C 28.691406 -34.855469 28.1875 -31.523438 27.480469 -28.492188 C 26.570312 -24.347656 23.742188 -13.335938 23.136719 -9.902344 C 21.925781 -3.335938 24.246094 1.113281 31.925781 0.910156 C 41.726562 0.808594 49.304688 -11.519531 53.34375 -20.308594 C 53.851562 -21.519531 50.3125 -23.539062 49.808594 -22.328125 C 46.070312 -13.640625 40.109375 -6.164062 35.96875 -6.164062 C 33.441406 -6.164062 33.945312 -10.003906 34.753906 -13.742188 C 35.867188 -18.589844 37.988281 -24.246094 39.097656 -28.894531 C 41.019531 -37.078125 39.097656 -42.9375 31.421875 -43.039062 Z M 31.421875 -43.039062" transform="translate(147.038 193.319)"/></g></g></g><g fill="#F00"><g><g><path d="M 40.917969 -68.703125 C 38.492188 -62.234375 34.25 -49.605469 32.128906 -41.929688 C 25.257812 -43.34375 13.941406 -41.726562 6.363281 -32.027344 C -3.941406 -19.195312 -5.050781 1.3125 10.003906 0.910156 C 17.984375 0.808594 23.136719 -5.65625 26.167969 -11.820312 C 25.15625 -4.242188 28.492188 0.503906 33.847656 0.402344 C 42.9375 0.304688 50.515625 -9.597656 55.46875 -20.308594 C 56.074219 -21.519531 52.535156 -23.539062 51.929688 -22.328125 C 48.597656 -14.347656 42.636719 -6.667969 38.695312 -6.566406 C 30.613281 -6.363281 46.375 -51.628906 51.527344 -66.582031 C 51.628906 -69.410156 42.230469 -70.519531 40.917969 -68.703125 Z M 30.109375 -34.957031 C 28.492188 -28.691406 26.773438 -23.136719 25.15625 -19.5 C 20.8125 -9.496094 14.75 -4.445312 11.519531 -6.972656 C 7.679688 -9.496094 10.507812 -20.410156 13.941406 -26.066406 C 18.488281 -33.644531 25.15625 -35.96875 30.109375 -34.957031 Z M 30.109375 -34.957031" transform="translate(196.137 193.319)"/></g></g></g><g fill="#F00"><g><g><path d="M 24.046875 -42.738281 C 12.628906 -40.816406 0.808594 -29.199219 -1.414062 -15.660156 C -3.234375 -4.34375 2.425781 1.011719 9.800781 0.910156 C 17.984375 0.707031 22.429688 -5.558594 25.964844 -11.71875 C 24.753906 -4.242188 27.480469 0.402344 32.332031 0.402344 C 41.828125 0.402344 49.707031 -9.296875 54.960938 -20.308594 C 55.566406 -21.519531 51.929688 -23.539062 51.425781 -22.328125 C 47.789062 -13.539062 40.917969 -6.667969 37.179688 -6.566406 C 34.855469 -6.566406 34.25 -8.890625 35.363281 -13.941406 C 36.269531 -18.894531 38.089844 -24.953125 39.199219 -28.792969 C 38.796875 -30.914062 31.320312 -33.039062 29.5 -30.714844 C 26.066406 -17.78125 15.964844 -2.425781 11.011719 -7.273438 C 8.6875 -9.597656 9.296875 -16.46875 12.425781 -23.035156 C 15.558594 -29.703125 21.117188 -34.855469 26.976562 -35.664062 C 31.625 -36.269531 37.28125 -34.855469 41.421875 -31.523438 C 43.039062 -30.714844 47.183594 -35.363281 46.171875 -36.976562 C 40.515625 -42.738281 30.714844 -43.847656 24.046875 -42.738281 Z M 24.046875 -42.738281" transform="translate(247.46 193.319)"/></g></g></g><g fill="#F00"><g><g><path d="M 2.625 -16.972656 C 6.667969 -24.855469 9.195312 -31.925781 11.011719 -38.492188 C 13.132812 -35.96875 17.277344 -32.632812 14.953125 -29.097656 C 10.910156 -23.136719 6.566406 -16.46875 6.566406 -10.003906 C 6.566406 -3.738281 10.40625 0.808594 18.285156 0.910156 C 30.109375 1.011719 38.089844 -8.285156 43.34375 -20.308594 C 43.847656 -21.417969 40.414062 -23.539062 39.90625 -22.429688 C 34.453125 -10.609375 26.976562 -6.265625 22.226562 -6.265625 C 18.992188 -6.265625 17.882812 -8.488281 18.085938 -11.417969 C 18.386719 -16.164062 21.925781 -21.621094 25.761719 -26.46875 C 30.816406 -32.9375 20.710938 -39.300781 15.054688 -45.160156 C 18.691406 -59.507812 -1.3125 -53.953125 7.578125 -41.222656 C 5.152344 -32.429688 3.03125 -27.078125 -1.011719 -18.894531 C -1.71875 -17.578125 1.917969 -15.761719 2.625 -16.972656 Z M 2.625 -16.972656" transform="translate(298.276 193.319)"/></g></g></g><g fill="#F00"><g><g><path d="M 21.425781 0.730469 C 29.292969 0.730469 36.859375 -3.6875 38.703125 -12.613281 L 33.792969 -12.613281 C 32.140625 -6.671875 27.230469 -3.714844 21.289062 -3.714844 C 13.261719 -3.714844 6.996094 -9.765625 6.996094 -18.46875 C 6.996094 -27.121094 13.261719 -33.277344 21.289062 -33.277344 C 27.257812 -33.277344 32.140625 -30.320312 33.820312 -24.355469 L 38.703125 -24.355469 C 36.859375 -33.25 29.238281 -37.699219 21.425781 -37.699219 C 10.605469 -37.699219 2.195312 -29.210938 2.195312 -18.46875 C 2.195312 -7.8125 10.605469 0.730469 21.425781 0.730469 Z M 21.425781 0.730469" transform="translate(50.833 252.307)"/></g></g></g><g fill="#F00"><g><g><path d="M 27.746094 0 L 27.746094 -4.339844 L 9.816406 -4.339844 L 9.816406 -36.886719 L 5.015625 -36.886719 L 5.015625 0 Z M 27.746094 0" transform="translate(110.027 252.307)"/></g></g></g><g fill="#F00"><g><g><path d="M 9.816406 0 L 9.816406 -36.886719 L 5.015625 -36.886719 L 5.015625 0 Z M 9.816406 0" transform="translate(157.127 252.307)"/></g></g></g><g fill="#F00"><g><g><path d="M 31.8125 -7.972656 L 31.785156 -7.972656 L 9.058594 -36.886719 L 5.015625 -36.886719 L 5.015625 0 L 9.816406 0 L 9.816406 -28.832031 L 32.519531 0 L 36.585938 0 L 36.585938 -36.886719 L 31.8125 -36.886719 Z M 31.8125 -7.972656" transform="translate(190.235 252.307)"/></g></g></g><g fill="#F00"><g><g><path d="M 9.816406 0 L 9.816406 -36.886719 L 5.015625 -36.886719 L 5.015625 0 Z M 9.816406 0" transform="translate(250.107 252.307)"/></g></g></g><g fill="#F00"><g><g><path d="M 21.425781 0.730469 C 29.292969 0.730469 36.859375 -3.6875 38.703125 -12.613281 L 33.792969 -12.613281 C 32.140625 -6.671875 27.230469 -3.714844 21.289062 -3.714844 C 13.261719 -3.714844 6.996094 -9.765625 6.996094 -18.46875 C 6.996094 -27.121094 13.261719 -33.277344 21.289062 -33.277344 C 27.257812 -33.277344 32.140625 -30.320312 33.820312 -24.355469 L 38.703125 -24.355469 C 36.859375 -33.25 29.238281 -37.699219 21.425781 -37.699219 C 10.605469 -37.699219 2.195312 -29.210938 2.195312 -18.46875 C 2.195312 -7.8125 10.605469 0.730469 21.425781 0.730469 Z M 21.425781 0.730469" transform="translate(283.214 252.307)"/></g></g></g></svg>