<svg xmlns="http://www.w3.org/2000/svg" xmlns:xlink="http://www.w3.org/1999/xlink" width="375" viewBox="0 0 375 375" height="375" version="1.0"><defs><clipPath id="d"><path d="M 180.878906 345 L 194.707031 345 L 194.707031 362.328125 L 180.878906 362.328125 Z M 180.878906 345"/></clipPath><clipPath id="e"><path d="M 318.1875 56 L 375 56 L 375 200 L 318.1875 200 Z M 318.1875 56"/></clipPath><clipPath id="f"><path d="M 166 0.90625 L 210 0.90625 L 210 39 L 166 39 Z M 166 0.90625"/></clipPath><clipPath id="g"><path d="M 0 56 L 57 56 L 57 200 L 0 200 Z M 0 56"/></clipPath><clipPath id="c"><path d="M0 0H375V363H0z"/></clipPath><filter x="0%" y="0%" width="100%" xmlns:xlink="http://www.w3.org/1999/xlink" xlink:type="simple" xlink:actuate="onLoad" height="100%" id="a" xlink:show="other"><feColorMatrix values="0 0 0 0 1 0 0 0 0 1 0 0 0 0 1 0 0 0 1 0" color-interpolation-filters="sRGB"/></filter><mask id="b"><g filter="url(#a)"><path fill-opacity=".2" d="M-37.5 -37.5H412.5V412.5H-37.5z"/></g></mask></defs><path fill="#FFF" d="M-37.5 -37.5H412.5V412.5H-37.5z"/><path fill="#FFF" d="M-37.5 -37.5H412.5V412.5H-37.5z"/><path fill="#FFF" d="M-37.5 -37.5H412.5V412.5H-37.5z"/><g mask="url(#b)"><g><g clip-path="url(#c)" transform="translate(0 6)"><path d="M 235.1875 98.085938 C 233.011719 95.175781 226.625 92.78125 224.03125 98.15625 C 223.609375 99.03125 223.644531 99.765625 224.667969 99.765625 C 224.550781 100.40625 224.660156 101.597656 224.816406 102.003906 C 225.71875 104.105469 228.71875 103.800781 228.527344 103.203125 C 228.425781 102.894531 227.925781 103.191406 226.960938 102.757812 C 226.152344 102.386719 225.539062 101.246094 225.699219 100.320312 C 226.472656 101.433594 228.03125 102.167969 229.40625 101.992188 C 231.070312 101.792969 232.425781 100.285156 232.304688 98.558594 C 232.304688 98.378906 232.289062 98.417969 232.332031 98.445312 C 233.484375 99.175781 232.914062 101.023438 231.625 101.890625 C 231.171875 102.164062 230.707031 102.472656 230.1875 102.820312 L 230.167969 102.929688 C 230.296875 103.015625 231.230469 103.132812 232.074219 102.671875 C 233.457031 101.976562 234.234375 100.941406 234.226562 99.386719 C 234.21875 99.039062 234.152344 98.671875 234.003906 98.320312 C 234.308594 98.40625 234.59375 98.492188 234.839844 98.570312 C 235.128906 98.664062 235.367188 98.332031 235.1875 98.085938 Z M 214.898438 100.933594 C 211.066406 102.203125 215.304688 105.917969 214.605469 104.027344 C 214.453125 103.605469 213.828125 102.746094 215.109375 102.203125 C 217.230469 101.203125 217.140625 100.191406 214.898438 100.933594 Z M 198.367188 176.820312 C 198.378906 175.050781 198.394531 173.285156 198.40625 171.523438 C 225.097656 165.386719 257.519531 166.394531 265.726562 145.238281 C 272.375 128.09375 263.542969 112.289062 244.308594 110.625 C 245.664062 109.175781 246.472656 107.480469 246.609375 105.5 C 246.625 105.28125 246.460938 105.160156 246.316406 105.152344 C 245.800781 105.117188 246.113281 105.871094 245.109375 107.402344 C 244.324219 108.621094 243.175781 109.53125 241.855469 110.183594 C 240.863281 110.667969 239.730469 111.445312 238.316406 112.207031 C 231.667969 115.777344 227.953125 113.113281 225.269531 113.6875 C 223.742188 114.019531 221.257812 114.59375 219.777344 114.222656 C 219.125 114.058594 218.722656 113.632812 218.246094 113.054688 C 219.316406 112.902344 221.078125 112.320312 222.628906 111.878906 C 235.792969 108.136719 231.671875 110.800781 238.414062 108.179688 C 238.765625 108.042969 238.601562 107.539062 238.257812 107.617188 C 237.179688 107.863281 236.152344 108.1875 235.089844 108.320312 C 232.082031 108.796875 231.714844 107.710938 225.316406 109.46875 C 220.242188 110.847656 220.066406 111.898438 216.347656 111.765625 C 213.484375 111.65625 214.511719 109.257812 211.191406 105.691406 C 209.71875 104.105469 211.703125 101.792969 212.1875 101.359375 C 214.648438 99.171875 216.765625 97.492188 220.230469 95.1875 C 220.03125 95.734375 219.933594 96.195312 220.066406 96.769531 C 220.148438 97.121094 220.664062 97.042969 220.640625 96.6875 C 220.570312 95.644531 221.570312 94.539062 222.339844 93.832031 C 224.449219 92.519531 226.828125 91.167969 229.570312 89.75 C 231.65625 88.980469 235.621094 88.144531 237.789062 88.585938 C 240.792969 89.199219 243.984375 91.089844 243.195312 93.847656 C 243.0625 94.3125 243.734375 94.617188 243.976562 94.050781 C 244.675781 92.410156 243.988281 90.082031 241.179688 88.5625 C 273.472656 91.417969 294.898438 121.023438 283 151.527344 C 271.554688 180.867188 235.628906 181.4375 209.484375 184.316406 C 206.304688 181.652344 202.597656 179.160156 198.367188 176.820312"/><path d="M 229.316406 101.113281 C 228.21875 101.519531 227.082031 101.125 226.527344 100.28125 C 226.027344 99.476562 225.761719 98.472656 226.066406 97.523438 C 226.933594 97.035156 229.011719 96.472656 230.605469 96.824219 C 230.785156 96.855469 231.457031 97.097656 231.582031 97.335938 C 232.171875 99.148438 231.035156 100.445312 229.316406 101.113281"/><g clip-path="url(#d)"><path d="M 187.015625 360.796875 C 190.367188 360.828125 191.246094 357.734375 188.253906 356.964844 C 184.632812 356.039062 182.109375 355.25 180.929688 354.511719 C 180.910156 352.132812 180.957031 348.695312 180.929688 345.0625 C 186.097656 346.90625 191.789062 347.640625 194.683594 349.207031 C 194.632812 356.082031 194.601562 359.992188 194.601562 360.074219 C 194.601562 360.867188 192.03125 362.328125 187.824219 362.328125 C 186.4375 362.328125 185.226562 362.171875 184.230469 361.929688 C 182.449219 361.5 181.339844 360.804688 181.097656 360.28125 L 181.101562 359.761719 C 181.101562 359.761719 184.75 360.777344 187.015625 360.796875"/></g><path d="M 180.777344 325.015625 C 186.234375 326.878906 191.773438 327.917969 194.832031 329.742188 C 194.796875 334.234375 194.765625 338.316406 194.738281 341.929688 C 189.925781 339.953125 184.136719 338.828125 180.867188 336.859375 C 180.839844 333.253906 180.8125 329.292969 180.777344 325.015625"/><path d="M 178.535156 348.574219 C 176.613281 349.9375 176.65625 351.691406 177.363281 353.539062 C 178.238281 355.824219 180.707031 356.167969 187.582031 357.933594 C 188.585938 358.191406 188.640625 358.488281 188.566406 358.910156 C 188.367188 360.023438 187.292969 359.71875 186.894531 359.652344 C 180.777344 358.648438 176.429688 357.554688 174.941406 353.695312 C 173.761719 350.820312 175.035156 347.675781 178.546875 345.566406 C 178.554688 346.332031 178.53125 347.859375 178.535156 348.574219"/><path d="M 178.171875 295.71875 C 178.183594 297.300781 178.199219 298.863281 178.207031 300.40625 C 174.429688 302.613281 172.84375 304.78125 173.199219 309.28125 C 174.160156 321.449219 203.476562 319.238281 202.863281 332.859375 C 202.6875 336.804688 200.5 339.414062 197.125 341.257812 C 197.136719 340.152344 197.144531 339 197.152344 337.808594 C 198.835938 336.375 199.617188 334.738281 199.527344 332.820312 C 199.027344 321.542969 168.066406 327.417969 167.632812 307.707031 C 167.5 301.710938 171.199219 297.699219 176.019531 294.792969 C 176.730469 295.117188 177.449219 295.425781 178.171875 295.71875"/><path d="M 144.023438 96.621094 C 144.527344 96.351562 145.828125 96.160156 147.089844 96.503906 C 147.460938 96.609375 149.042969 97.128906 149.3125 97.441406 C 149.234375 98.371094 149.125 99.441406 148.550781 100.160156 C 147.140625 101.929688 144.34375 101.738281 143.492188 99.632812 C 143.289062 99.144531 143.222656 98.613281 143.339844 98.089844 C 143.578125 97.050781 143.644531 96.855469 144.023438 96.621094"/><path d="M 179.753906 188.972656 C 181.082031 189.3125 182.335938 189.691406 183.496094 190.117188 C 188.234375 192.074219 192.367188 194.046875 195.835938 196.238281 C 195.710938 212.917969 195.582031 229.738281 195.460938 245.921875 C 190.191406 243.496094 184.78125 241.546875 180.128906 238.910156 C 180.007812 222.53125 179.878906 205.625 179.753906 188.972656"/><path d="M 180.566406 296.648438 C 185.988281 298.652344 191.335938 300.042969 195.039062 301.988281 C 194.992188 308.550781 194.941406 314.730469 194.898438 320.425781 C 190.089844 318.316406 184.597656 316.808594 180.699219 314.828125 C 180.65625 309.148438 180.613281 303.0625 180.566406 296.648438"/><path d="M 140.375 98.570312 C 140.617188 98.492188 140.90625 98.40625 141.210938 98.320312 C 140.796875 99.292969 140.984375 100.511719 141.578125 101.417969 C 142.863281 103.128906 145.109375 103.191406 145.058594 102.875 C 144.835938 102.527344 143.148438 101.949219 142.582031 100.773438 C 142.1875 100.109375 142.09375 99.027344 142.710938 98.566406 C 142.316406 100.628906 144.054688 102.402344 145.78125 102.238281 C 146.777344 102.164062 147.914062 101.507812 148.683594 100.90625 C 148.015625 102.1875 148.332031 102.097656 146.828125 102.636719 C 146.609375 102.714844 146.65625 103.039062 146.886719 103.054688 C 148.417969 103.148438 149.421875 102.597656 149.890625 100.863281 C 149.988281 100.503906 150.113281 100.046875 150.113281 100.03125 C 150.882812 99.6875 151.796875 99.433594 151.179688 98.15625 C 148.589844 92.777344 142.203125 95.175781 140.027344 98.085938 C 139.847656 98.332031 140.085938 98.664062 140.375 98.570312 Z M 160.730469 102.203125 C 162.007812 102.746094 161.382812 103.605469 161.226562 104.027344 C 160.53125 105.917969 164.773438 102.203125 160.9375 100.933594 C 158.695312 100.191406 158.605469 101.203125 160.730469 102.203125 Z M 95.816406 110.523438 C 104.410156 97.230469 120.359375 89.363281 135.152344 88.484375 C 132.640625 89.546875 130.605469 91.480469 131.238281 94.050781 C 131.347656 94.503906 132.066406 94.464844 132.015625 93.847656 C 131.925781 92.683594 132.359375 91.746094 133.171875 91.019531 C 134.960938 89.414062 138.40625 88.171875 142.050781 88.800781 C 146.117188 89.507812 146.484375 90.292969 150.359375 92.539062 C 151.925781 93.582031 154.242188 95.191406 154.589844 96.773438 C 154.664062 97.109375 155.15625 97.054688 155.160156 96.71875 C 155.164062 95.980469 154.835938 95.375 154.460938 94.855469 C 157.652344 96.945312 160.554688 98.449219 162.566406 100.675781 C 163.945312 102.207031 164.84375 104.734375 163.574219 106.203125 C 161.171875 108.824219 161.132812 110.429688 159.355469 110.996094 C 158.457031 110.878906 157.457031 110.796875 157.4375 110.792969 C 155.648438 110.5 148.808594 106.875 143.316406 107.765625 C 142.074219 107.964844 141.492188 108.144531 140.15625 108.105469 C 138.808594 108.035156 137.164062 107.648438 136.953125 107.617188 C 136.601562 107.546875 136.460938 108.058594 136.796875 108.179688 C 143.363281 110.53125 141.9375 107.371094 152.925781 110.828125 C 154.640625 111.351562 156.710938 112.128906 157.722656 112.070312 C 157.816406 112.070312 158.574219 111.9375 157.9375 112.882812 C 156.847656 114.515625 155.777344 114.902344 151.214844 113.960938 C 149.203125 113.53125 149.410156 113.53125 147.265625 113.636719 C 144.265625 113.828125 140.957031 113.203125 138.730469 112.640625 C 135.203125 111.746094 134.800781 111.207031 132.96875 109.820312 C 131.140625 108.429688 130.183594 107.230469 129.210938 105.359375 C 129.089844 105 128.554688 105.125 128.601562 105.5 C 128.855469 107.484375 129.765625 109.171875 131.335938 110.585938 C 112.289062 111.980469 102.75 127.542969 109.613281 145.238281 C 119.714844 171.28125 166.519531 163.738281 194.148438 177.285156 C 215.457031 188.046875 224.347656 202.277344 221.640625 221.972656 C 219.59375 236.847656 211.175781 244.304688 201.847656 249.246094 C 200.539062 248.457031 199.199219 247.734375 197.835938 247.054688 C 197.855469 244.765625 197.871094 242.460938 197.886719 240.148438 C 204.6875 235.976562 209.84375 230.101562 210.457031 219.117188 C 211.488281 200.667969 198.152344 193.585938 184.363281 187.894531 C 161.574219 179.476562 106.929688 188.929688 92.339844 151.527344 C 86.5625 136.714844 88.460938 121.902344 95.816406 110.523438"/><path d="M 177.859375 253.878906 C 177.875 255.910156 177.886719 257.925781 177.902344 259.929688 C 173 262.902344 169.792969 266.746094 169.980469 273.070312 C 170.222656 281.230469 176.46875 285.058594 183.964844 288.175781 C 192.320312 291.714844 211.070312 296.027344 207.308594 311.226562 C 206.035156 316.507812 202.023438 319.472656 197.277344 321.503906 C 197.289062 319.765625 197.300781 317.980469 197.316406 316.15625 C 200.160156 314.441406 202.128906 312.3125 202.316406 309.324219 C 203.894531 292.855469 167.335938 300.289062 162.472656 276.125 C 160.765625 266.375 163.6875 258.519531 173.828125 251.996094 C 175.164062 252.667969 176.511719 253.292969 177.859375 253.878906"/><path d="M 166.664062 186.800781 C 170.535156 187.238281 174.140625 187.742188 177.367188 188.417969 C 177.378906 190.511719 177.398438 192.609375 177.410156 194.710938 C 167.914062 201.019531 164.488281 208.898438 165.0625 219.117188 C 166.585938 246.449219 196.164062 242.113281 209.246094 258.675781 C 213.46875 263.929688 213.957031 269.902344 212.871094 276.125 C 211.195312 284.433594 205.777344 289.007812 199.449219 292.101562 C 198.808594 291.742188 198.160156 291.402344 197.503906 291.078125 C 197.519531 289.125 197.535156 287.144531 197.550781 285.140625 C 202.027344 282.425781 205.1875 278.828125 205.363281 273.070312 C 206.050781 249.375 159.171875 260.449219 153.882812 221.988281 C 151.941406 207.875 155.71875 196.371094 166.664062 186.800781"/><path d="M 180.25 254.898438 C 185.824219 257.207031 191.203125 259.058594 195.34375 261.394531 C 195.269531 271.34375 195.199219 280.9375 195.128906 289.972656 C 189.738281 287.609375 185.355469 286.519531 180.46875 283.910156 C 180.398438 274.679688 180.328125 264.945312 180.25 254.898438"/><path d="M 178.417969 328.417969 C 176.628906 329.761719 175.554688 331.515625 175.949219 333.976562 C 177.328125 342.582031 203.3125 341.011719 201.347656 351.917969 C 200.863281 354.613281 199.101562 356.578125 197.0625 357.460938 C 197.066406 357.074219 197.082031 355.144531 197.085938 354.695312 C 198.363281 353.703125 198.820312 353.257812 198.980469 351.671875 C 199.042969 351.085938 198.8125 350.007812 198.230469 349.214844 C 194.074219 343.546875 172.429688 345.816406 172.554688 332.1875 C 172.589844 328.550781 174.976562 326.097656 178.386719 324.167969 C 178.398438 325.621094 178.410156 327.035156 178.417969 328.417969"/><path d="M 288.800781 134.882812 C 291.507812 143.945312 292.5 150.128906 291.800781 150.96875 C 291.460938 151.382812 289.628906 150.933594 289.113281 150.675781 C 288.402344 150.304688 287.433594 149.539062 286.511719 148.695312 C 287.972656 143.988281 288.714844 139.363281 288.800781 134.882812"/><path d="M 301.996094 146.832031 C 299.957031 147.34375 292.667969 143.125 290.386719 135.246094 C 289.84375 133.363281 289.238281 131.429688 288.582031 129.476562 C 287.769531 121.34375 284.78125 113.839844 280.109375 107.425781 C 282.960938 105.90625 281.664062 102.136719 280.03125 99.054688 C 280.910156 99.933594 281.640625 100.589844 282.351562 101.09375 C 290.53125 116.957031 293.503906 133.453125 294.40625 133.1875 C 294.539062 133.148438 294.617188 133.007812 294.578125 132.875 C 291.007812 120.652344 288.207031 111.046875 283.773438 101.910156 C 285.101562 102.507812 286.992188 102.851562 288.371094 102.894531 C 289.921875 106.238281 291.3125 109.664062 292.632812 113.09375 C 302.011719 137.589844 301.667969 140.085938 302.691406 143.117188 C 303.15625 144.667969 303.953125 146.042969 301.996094 146.832031"/><g clip-path="url(#e)"><path d="M 351.757812 158.527344 C 349.171875 128.261719 341.636719 89.078125 319.410156 68.191406 C 319.457031 67.558594 319.339844 66.871094 319.019531 66.144531 C 318.304688 64.53125 317.984375 65.773438 321.707031 65.878906 C 325.882812 69.867188 330.277344 74.554688 334.488281 80.539062 C 359.433594 116.550781 353.839844 166.632812 365.058594 185.664062 C 365.128906 185.785156 365.28125 185.824219 365.402344 185.753906 C 365.933594 185.4375 364.210938 184.339844 362.054688 177.015625 C 353.910156 148.867188 358.480469 99.960938 322.964844 65.792969 C 324.992188 65.4375 326.503906 63.136719 326.460938 61.367188 C 326.40625 59.296875 324.792969 57.699219 322.464844 56.265625 C 325.859375 56.828125 336.566406 67.558594 343.160156 79.382812 C 365.597656 120.140625 362.011719 157.253906 366.070312 175.476562 C 367.738281 182.972656 370.71875 187.742188 373.921875 193.734375 C 374.699219 195.160156 376.21875 198.820312 375.433594 199.675781 C 373.996094 201.183594 364.109375 192.476562 358.632812 184.527344 C 353.613281 177.316406 352.460938 166.417969 351.757812 158.527344"/></g><path d="M 260.546875 30.785156 C 264.410156 30.722656 266.957031 28.03125 274.425781 31.609375 C 274.730469 31.753906 274.96875 31.316406 274.679688 31.140625 C 269.230469 27.828125 265.6875 28.449219 260.457031 30.296875 C 260.191406 30.390625 260.265625 30.789062 260.546875 30.785156 Z M 255.941406 34.078125 C 255.3125 33.242188 244.988281 44.980469 242.074219 39.90625 C 241.929688 39.652344 241.539062 39.8125 241.613281 40.09375 C 241.835938 40.980469 242.503906 41.664062 243.363281 41.957031 C 247.074219 43.28125 252.925781 37.1875 255.886719 34.453125 C 255.996094 34.355469 256.035156 34.207031 255.941406 34.078125 Z M 240.808594 72.441406 C 241.558594 75.441406 245.601562 78.269531 246.550781 84.054688 C 246.605469 84.382812 247.09375 84.332031 247.078125 83.996094 C 246.816406 78.804688 242.625 74.214844 241.222656 72.125 C 241.082031 71.914062 240.691406 71.980469 240.808594 72.441406 Z M 261.03125 68.429688 C 260.929688 68.402344 261.269531 68.539062 261.367188 68.265625 C 261.59375 67.628906 250.898438 64.753906 244.878906 61.21875 C 243.855469 60.617188 243.429688 63.648438 261.03125 68.429688 Z M 246.824219 54.808594 C 246.726562 54.761719 248.136719 55.574219 251.246094 56.128906 C 254.429688 56.808594 260.8125 57.761719 264.847656 57.523438 C 264.75 57.527344 265.101562 57.546875 265.109375 57.261719 C 265.121094 56.730469 264.421875 57.199219 260.390625 56.664062 C 256.855469 56.171875 257.238281 56.210938 246.980469 54.328125 C 246.691406 54.273438 246.558594 54.679688 246.824219 54.808594 Z M 250.386719 45.699219 C 250.289062 45.675781 251.949219 46.175781 255.421875 46.324219 C 256.847656 46.433594 266.765625 47.027344 270.542969 46.753906 C 270.445312 46.761719 270.800781 46.78125 270.796875 46.484375 C 270.796875 45.988281 270.460938 46.40625 265.554688 46.039062 C 258.089844 45.464844 256.265625 45.242188 250.449219 45.195312 C 250.144531 45.195312 250.097656 45.628906 250.386719 45.699219 Z M 215.253906 72.886719 C 215.121094 72.632812 214.730469 72.765625 214.785156 73.050781 C 214.765625 72.953125 214.847656 74.105469 216.132812 76.859375 C 219.507812 84.941406 217.191406 88.480469 218.089844 88.636719 C 218.234375 88.664062 218.371094 88.566406 218.398438 88.421875 C 219.628906 81.488281 218.066406 78.265625 215.253906 72.886719 Z M 203.292969 69.101562 C 203.125 68.863281 202.753906 69.050781 202.847656 69.328125 C 202.816406 69.230469 202.933594 69.828125 204.539062 72.988281 C 207.898438 80.328125 205.996094 84.832031 206.90625 84.925781 C 207.054688 84.941406 207.183594 84.832031 207.199219 84.6875 C 207.96875 77.140625 206.203125 73.273438 203.292969 69.101562 Z M 246.179688 69.511719 C 247.117188 71.558594 247.984375 71.242188 255.164062 78.925781 C 255.257812 79.023438 255.40625 79.039062 255.515625 78.957031 C 255.8125 78.734375 255.660156 78.640625 253.542969 76.027344 C 250.863281 72.640625 248.09375 70.703125 246.53125 69.125 C 246.347656 68.941406 245.984375 69.089844 246.179688 69.511719 Z M 259.695312 38.210938 C 259.597656 38.183594 260.921875 38.65625 263.769531 38.683594 C 267.242188 38.851562 272.53125 38.886719 275.941406 38.058594 C 275.832031 38.085938 276.195312 38.050781 276.152344 37.757812 C 276.078125 37.226562 275.441406 37.820312 271.902344 37.871094 C 266.074219 37.898438 266.574219 37.542969 259.757812 37.714844 C 259.46875 37.722656 259.417969 38.136719 259.695312 38.210938 Z M 286.726562 29.40625 C 285.054688 30.308594 281.738281 31.261719 279.035156 31.269531 C 279.042969 30.210938 278.527344 29.066406 277.316406 28.601562 C 277.074219 28.484375 276.785156 28.453125 276.570312 28.394531 C 273.570312 27.671875 267.585938 24.636719 260.503906 27.710938 C 260.296875 27.796875 260.414062 28.101562 260.621094 28.03125 C 267.878906 25.648438 273.105469 28.890625 276.351562 29.714844 C 276.785156 29.855469 277.21875 29.996094 277.449219 30.464844 C 277.769531 31.09375 277.503906 31.855469 277.316406 31.976562 C 274.15625 33.960938 273.417969 33.449219 269.964844 33.058594 C 267.890625 32.804688 257.554688 34.066406 257.953125 35.207031 C 258.15625 35.800781 258.871094 34.671875 263.34375 34.472656 C 269.714844 34.125 272.035156 35.253906 274.675781 34.734375 C 275.84375 34.972656 277.039062 35.164062 278.015625 35.6875 C 279.625 36.527344 280.226562 38.851562 277.90625 40.320312 C 276.546875 41.164062 274.71875 41.5625 273.144531 41.859375 C 269.835938 42.316406 269.3125 42.761719 264.625 41.765625 C 261.871094 41.171875 258.753906 40.5 255.925781 40.820312 C 255.722656 40.847656 255.722656 41.144531 255.925781 41.167969 C 260.203125 41.691406 264.691406 43.792969 268.925781 43.832031 C 272.066406 43.703125 271.617188 43.34375 272.160156 43.640625 C 277.269531 46.636719 271.039062 51.886719 266.128906 52.023438 C 263.792969 51.253906 250.804688 50.261719 248.1875 50.023438 C 247.789062 49.984375 247.773438 50.5 248.097656 50.542969 C 257.261719 51.722656 264.082031 51.878906 270.128906 55.402344 C 271.617188 56.269531 266.703125 63.078125 260.792969 61.804688 C 256.050781 60.785156 251.59375 60.296875 247.09375 58.015625 C 246.726562 57.828125 246.53125 58.304688 246.8125 58.460938 C 251.84375 61.265625 260.925781 62.242188 264.484375 66.03125 C 265.863281 67.914062 260.914062 71.695312 258.070312 71.039062 C 257.609375 70.945312 257.542969 70.859375 254.542969 69.09375 C 251.375 67.238281 248.085938 65.597656 245.210938 63.433594 C 245.046875 63.308594 244.839844 63.535156 244.980469 63.6875 C 246.949219 65.855469 249.480469 67.628906 252.195312 69.335938 C 252.765625 69.875 260.203125 75.4375 259.320312 80.667969 C 258.816406 83.6875 255.667969 84.933594 251.101562 80.324219 C 249.128906 78.308594 249.398438 78.554688 247.847656 75.980469 C 246.277344 73.320312 244.136719 69.5 244.050781 69.453125 C 243.96875 69.398438 243.390625 69.3125 243.78125 69.996094 C 244.082031 70.519531 248.628906 79.019531 249.921875 83.503906 C 250.125 84.585938 249.796875 86.183594 248.789062 86.960938 C 248.621094 87.089844 248.433594 87.1875 248.238281 87.273438 C 246.839844 86.964844 245.582031 86.722656 244.074219 86.503906 C 243.539062 86.039062 243.113281 85.425781 242.914062 84.664062 C 241.78125 80.429688 239.386719 77.09375 237.515625 73.148438 C 237.480469 73.074219 237.417969 73.054688 237.355469 73.058594 C 237.15625 72.886719 236.84375 73.105469 236.949219 73.363281 C 238.679688 77.609375 241.039062 81.355469 241.957031 86.246094 C 241.105469 86.160156 240.246094 86.097656 239.390625 86.0625 C 238.851562 81.464844 236.691406 78.636719 234.628906 75.496094 C 234.484375 75.285156 234.089844 75.355469 234.207031 75.808594 C 234.957031 78.6875 237.542969 80.4375 238.625 86.039062 C 236.9375 86.003906 235.253906 86.085938 233.609375 86.316406 C 232.605469 82.054688 231.542969 79.234375 231.234375 76.671875 C 231.1875 76.277344 230.679688 76.375 230.707031 76.699219 C 230.996094 80.066406 232.0625 83.300781 232.609375 86.476562 C 231.617188 86.65625 230.644531 86.882812 229.691406 87.1875 C 229.207031 83.875 227.992188 80.480469 225.839844 77.550781 C 225.667969 77.3125 225.300781 77.515625 225.402344 77.789062 C 225.367188 77.691406 225.539062 78.253906 227.050781 81.5625 C 227.992188 83.886719 228.53125 85.847656 228.835938 87.480469 C 227.976562 87.792969 223.703125 90.210938 222.824219 90.726562 C 221.960938 87.386719 222.886719 81.757812 221.113281 76.699219 C 221 76.144531 220.738281 74.6875 220.367188 74.753906 C 219.609375 74.890625 221.214844 77.453125 221.011719 86.035156 C 220.964844 87.585938 220.761719 90.839844 220.242188 92.304688 C 219.164062 92.988281 218.179688 93.65625 217.25 94.3125 C 217.160156 94.242188 217.074219 94.164062 216.984375 94.070312 C 210.8125 87.683594 212.984375 82.199219 211.007812 73.542969 C 210.957031 73.332031 210.652344 73.378906 210.664062 73.589844 C 210.710938 74.371094 210.730469 75.285156 210.746094 76.273438 C 210.234375 74.433594 209.503906 72.636719 208.609375 70.757812 C 208.546875 70.625 208.410156 70.542969 208.261719 70.609375 C 207.164062 71.070312 213.074219 76.640625 209.007812 88.96875 C 208.789062 89.625 208.425781 90.53125 207.832031 90.886719 C 206.257812 91.894531 202.613281 85.753906 202.082031 83.011719 C 200.757812 76.179688 200.203125 73.449219 199.355469 68.175781 C 199.601562 68.222656 199.84375 68.25 200.085938 68.25 C 203.660156 68.207031 204.304688 66.324219 203.535156 65.28125 C 203.230469 64.871094 202.65625 67.792969 199.195312 66.78125 C 199.21875 63.421875 199.242188 60.519531 199.257812 58.136719 C 201.675781 57.828125 204.089844 57.886719 206.1875 58.324219 C 211.941406 59.515625 212.855469 62.210938 217.867188 67.652344 C 220.253906 70.238281 222.917969 72.582031 226.359375 73.230469 C 234.097656 74.496094 240.59375 68.828125 240.671875 61.667969 C 240.597656 55.558594 234.527344 50.785156 236.039062 42.113281 C 238.414062 27.433594 253.4375 25.207031 268.320312 24.433594 C 270.511719 24.339844 271.605469 24.226562 273.328125 24.429688 C 276.246094 24.761719 280.171875 25.828125 283.398438 26.195312 C 287.707031 26.683594 288.703125 25.71875 289.707031 25.921875 C 290.507812 26.074219 288.421875 28.503906 286.726562 29.40625"/><path d="M 251.136719 82.363281 C 251.695312 82.832031 252.292969 83.269531 252.898438 83.636719 C 254.097656 85.816406 255.144531 87.78125 256.0625 89.5625 C 255.535156 89.367188 255.003906 89.183594 254.46875 89 C 253.046875 86.097656 251.730469 83.808594 251.136719 82.363281"/><path d="M 251.46875 84.992188 C 252.355469 86.53125 253.027344 87.742188 253.542969 88.695312 C 252.679688 88.421875 251.808594 88.164062 250.925781 87.925781 C 250.25 86.324219 251.078125 87.652344 251.46875 84.992188"/><path d="M 280.335938 36.496094 C 279.582031 34.910156 277.976562 34.460938 276.296875 34.207031 C 276.671875 34.042969 277.066406 33.851562 277.496094 33.601562 C 278.414062 33.082031 278.605469 32.882812 278.839844 32.28125 C 280.621094 32.535156 282.617188 32.390625 284.476562 31.855469 C 302.578125 36.828125 313.570312 49.570312 323.226562 49.894531 C 323.578125 49.902344 323.59375 49.375 323.242188 49.359375 C 314.28125 48.921875 302.757812 36.28125 286.175781 31.226562 C 286.871094 30.917969 287.511719 30.546875 288.097656 30.125 C 306.195312 35.511719 317.898438 44.5625 322.90625 47.269531 C 327.859375 49.945312 328.925781 49.574219 329.839844 50.363281 C 330.78125 51.089844 330.777344 52.527344 329.3125 53.671875 C 322.058594 59.40625 305.101562 45.515625 280.335938 36.496094"/><path d="M 254.441406 84.425781 C 255.445312 84.828125 256.550781 85.0625 257.949219 84.546875 C 258.460938 85.253906 259.976562 88.355469 261.675781 92.003906 C 260.269531 91.300781 258.828125 90.648438 257.34375 90.058594 C 256.371094 88.070312 255.402344 86.203125 254.441406 84.425781"/><path d="M 309.972656 79.597656 C 304.335938 79.777344 286.789062 64.101562 271.617188 56.269531 C 271.765625 55.332031 271.546875 54.5625 270.871094 54.15625 C 268.191406 52.636719 268.355469 53.488281 270.476562 52.464844 C 277.148438 56.015625 287.355469 60.011719 306.617188 73.722656 C 306.898438 73.921875 307.207031 73.5 306.929688 73.292969 C 296.171875 65.246094 283.816406 57.210938 271.308594 52.027344 C 271.949219 51.65625 272.539062 51.230469 273.066406 50.765625 C 285.308594 56.117188 300.941406 65.832031 306.546875 70.210938 C 308.589844 71.84375 311.785156 74.777344 312.042969 77.382812 C 312.183594 78.789062 311.296875 79.578125 309.972656 79.597656"/><path d="M 312.511719 52.742188 C 318.105469 55.675781 324.726562 57.328125 324.859375 60.519531 C 324.882812 61.710938 323.796875 63.992188 323.070312 64.230469 C 321.320312 64.78125 318.289062 63.800781 316.464844 63.082031 C 313.679688 60.78125 309.546875 58.929688 306.96875 57.6875 C 301.652344 55.085938 285.605469 46.902344 275.398438 42.898438 C 276.824219 42.582031 278.175781 42.109375 279.234375 41.160156 C 287.847656 45.289062 308.867188 53.175781 318.945312 60.875 C 319.222656 61.085938 319.546875 60.671875 319.273438 60.453125 C 310.730469 53.644531 291.835938 45.355469 279.863281 40.484375 C 280.492188 39.675781 280.839844 38.820312 280.683594 37.660156 C 290.148438 41.59375 301.898438 48.132812 312.511719 52.742188"/><path d="M 306.621094 68.339844 C 300.046875 64.171875 285.375 55.074219 273.65625 50.210938 C 274.1875 49.660156 274.636719 49.023438 274.902344 48.539062 C 287.03125 53.515625 300.160156 60.058594 311.515625 66.3125 C 311.820312 66.480469 312.078125 66.023438 311.777344 65.851562 C 306.148438 62.570312 286.683594 51.835938 275.285156 47.621094 C 275.671875 46.398438 275.53125 45.160156 274.589844 44.085938 C 273.613281 43.039062 273.230469 43.320312 274.21875 43.136719 C 284.808594 47.417969 303.390625 57.257812 306.402344 58.800781 C 310.957031 61.078125 320.878906 66.191406 317.09375 69.585938 C 314.625 71.773438 310.59375 70.855469 306.621094 68.339844"/><path d="M 279.214844 106.238281 C 275.183594 101.050781 270.015625 96.628906 264.003906 93.242188 C 262.523438 90.46875 260.933594 87.382812 258.933594 84.035156 C 259.414062 83.703125 259.832031 83.277344 260.15625 82.761719 C 274.335938 97.996094 274.109375 100.261719 274.796875 99.789062 C 274.917969 99.703125 274.949219 99.539062 274.867188 99.414062 C 270.144531 92.535156 265.285156 86.902344 260.601562 81.800781 C 261.058594 80.472656 260.949219 78.921875 260.417969 77.574219 C 272.132812 88.539062 283.925781 104.0625 279.214844 106.238281"/><path d="M 285.5625 100.964844 C 279.945312 99.785156 274.664062 88.242188 258.785156 74.875 C 256.4375 71.847656 254.796875 70.933594 256.234375 71.808594 C 266.632812 78.035156 277.585938 87.078125 284.882812 96.824219 C 285.09375 97.105469 285.523438 96.792969 285.316406 96.507812 C 278.425781 86.84375 269.347656 79.164062 259.507812 72.527344 C 260.894531 72.34375 262.347656 71.6875 263.550781 70.792969 C 277.085938 79.460938 286.59375 93 291.113281 97.804688 C 292.25 101.359375 290 102.097656 285.5625 100.964844"/><path d="M 293.992188 98.601562 C 290.464844 95.550781 278.925781 78.753906 264.222656 70.242188 C 266.8125 67.914062 265.890625 66.429688 266.289062 66.667969 C 275.867188 72.453125 286.207031 81.742188 291.296875 91.78125 C 291.457031 92.09375 291.929688 91.863281 291.777344 91.546875 C 284.074219 75.523438 266.523438 65.769531 264.945312 64.398438 C 262.914062 62.648438 263.484375 64.4375 267.089844 62.160156 C 280.351562 70.757812 293.910156 81.390625 298.742188 94.757812 C 300.71875 100.714844 298.210938 102.191406 293.992188 98.601562"/><path d="M 298.476562 101.925781 C 301.082031 101.375 301.210938 98.3125 300.570312 95.710938 C 305.902344 103.675781 310.816406 113.113281 315.710938 125.109375 C 318.589844 131.886719 320.242188 139.113281 321.632812 146.34375 C 321.699219 146.671875 322.1875 146.582031 322.128906 146.253906 C 320.8125 139.003906 319.226562 131.703125 316.390625 124.839844 C 311.84375 113.292969 306.425781 102.378906 299.554688 92.628906 C 299.140625 91.605469 298.667969 90.601562 298.15625 89.617188 C 300.414062 91.308594 303.535156 93.117188 306.203125 93.445312 C 325.464844 123.5 329.871094 163.761719 323.292969 159.160156 C 321.433594 157.832031 316.113281 150.339844 314.996094 145.082031 C 314.65625 143.378906 314.386719 143.214844 313.054688 136.964844 C 310.8125 127.101562 303.492188 111.253906 298.476562 101.925781"/><path d="M 325.949219 139.238281 C 322.121094 121.839844 316.871094 108.34375 307.167969 93.496094 C 310.238281 93.417969 311.195312 90.863281 310.65625 87.820312 C 320.503906 101.871094 326.957031 122.382812 329.246094 137.609375 C 330.605469 146.351562 331.054688 155.222656 332.222656 164.007812 C 332.269531 164.335938 332.761719 164.273438 332.722656 163.945312 C 331.632812 155.183594 331.261719 146.300781 329.964844 137.503906 C 327.503906 119.898438 319.777344 97.554688 309.371094 84.449219 C 308.300781 82.632812 306.722656 80.976562 304.945312 79.445312 C 307.0625 80.515625 309.683594 81.671875 311.761719 80.636719 C 320.566406 91.375 330.570312 111.78125 334.132812 132.179688 C 335.214844 141.792969 335.230469 154.871094 337.378906 163.976562 C 338.199219 173.636719 339.261719 175.132812 336.5625 175.457031 C 334.644531 175.671875 333.171875 172.09375 331.964844 170.128906 C 330.167969 167.613281 327.996094 161.484375 327.242188 158.214844 C 328.1875 155.285156 326.746094 143.433594 325.949219 139.238281"/><path d="M 303.984375 142.160156 C 302.773438 140.996094 302.132812 134.320312 293.652344 112.703125 C 291.332031 106.789062 290.863281 106.359375 289.46875 102.867188 C 290.878906 102.722656 291.84375 102.191406 292.386719 101.367188 C 298.359375 111.925781 304.046875 127.386719 305.558594 133.066406 C 307.425781 139.84375 306.859375 141.898438 307.542969 141.800781 C 307.679688 141.78125 307.773438 141.65625 307.753906 141.519531 C 307.355469 138.640625 306.894531 135.75 306.15625 132.914062 C 304.652344 126.964844 299.082031 111.132812 292.847656 100.238281 C 292.890625 100.027344 292.910156 99.804688 292.921875 99.574219 C 294.113281 100.628906 295.773438 101.804688 297.359375 101.976562 C 302.652344 112.492188 308.828125 125.726562 311.449219 137.164062 C 311.917969 139.214844 313.167969 145.148438 313.054688 147.074219 C 312.683594 151.886719 306.988281 145.054688 303.984375 142.160156"/><path d="M 313.066406 79.421875 C 315.199219 75.714844 308.511719 70.1875 313.871094 75.136719 C 342.867188 102.832031 340.507812 153.0625 346.167969 176.226562 C 346.246094 176.550781 346.730469 176.429688 346.65625 176.109375 C 342.367188 157.980469 343.519531 137.859375 336.746094 114.84375 C 330.050781 92.078125 321.867188 80.273438 311.335938 71.878906 C 314.964844 72.820312 317.703125 71.613281 318.832031 69.882812 C 322.804688 73.777344 326.136719 77.871094 329.0625 82.28125 C 340.535156 101.269531 345.921875 123.890625 348.363281 146.011719 C 352.609375 184.269531 353.957031 178.578125 357.699219 189.398438 C 358.515625 191.746094 358.863281 193.527344 357.519531 193.929688 C 353.699219 195.078125 349.527344 188.269531 347.726562 185.6875 C 346.757812 184.347656 345.929688 183.277344 344.28125 179.851562 C 334.464844 158.898438 338.066406 144.808594 334.453125 126.554688 C 331.03125 112.058594 322.085938 90.679688 313.066406 79.421875"/><path d="M 63.847656 66.3125 C 75.203125 60.058594 88.332031 53.515625 100.460938 48.539062 C 100.722656 49.023438 101.175781 49.660156 101.707031 50.210938 C 89.988281 55.074219 75.316406 64.171875 68.738281 68.339844 C 64.769531 70.855469 60.738281 71.773438 58.265625 69.585938 C 54.480469 66.191406 64.40625 61.078125 68.960938 58.800781 C 71.972656 57.257812 90.554688 47.417969 101.144531 43.136719 C 102.128906 43.320312 101.746094 43.039062 100.773438 44.085938 C 99.832031 45.160156 99.691406 46.398438 100.078125 47.621094 C 88.679688 51.835938 69.214844 62.570312 63.585938 65.851562 C 63.28125 66.023438 63.542969 66.480469 63.847656 66.3125"/><path d="M 82.730469 113.09375 C 84.046875 109.664062 85.441406 106.238281 86.992188 102.894531 C 88.371094 102.851562 90.261719 102.507812 91.589844 101.910156 C 87.15625 111.046875 84.355469 120.652344 80.785156 132.875 C 80.746094 133.007812 80.824219 133.148438 80.953125 133.1875 C 81.859375 133.453125 84.835938 116.957031 93.011719 101.09375 C 93.722656 100.589844 94.453125 99.933594 95.332031 99.054688 C 93.710938 102.105469 92.421875 105.839844 95.175781 107.386719 C 90.511719 113.851562 87.574219 121.390625 86.773438 129.492188 C 86.121094 131.4375 85.515625 133.367188 84.972656 135.246094 C 82.695312 143.125 75.40625 147.34375 73.363281 146.832031 C 71.410156 146.042969 72.207031 144.667969 72.667969 143.117188 C 73.695312 140.085938 73.347656 137.589844 82.730469 113.09375"/><path d="M 96.066406 106.191406 C 91.585938 103.867188 103.300781 88.472656 114.945312 77.574219 C 114.414062 78.921875 114.300781 80.472656 114.757812 81.800781 C 110.074219 86.902344 105.21875 92.535156 100.496094 99.414062 C 100.414062 99.539062 100.441406 99.703125 100.566406 99.789062 C 101.25 100.261719 101.027344 97.996094 115.207031 82.761719 C 115.53125 83.277344 115.945312 83.703125 116.425781 84.035156 C 114.464844 87.324219 112.898438 90.351562 111.445312 93.085938 C 105.304688 96.496094 100.101562 100.960938 96.066406 106.191406"/><path d="M 90.480469 96.824219 C 97.777344 87.078125 108.730469 78.035156 119.128906 71.808594 C 120.5625 70.933594 118.925781 71.847656 116.578125 74.875 C 100.699219 88.242188 95.414062 99.785156 89.796875 100.964844 C 85.359375 102.097656 83.113281 101.359375 84.25 97.804688 C 88.769531 93 98.273438 79.460938 111.8125 70.792969 C 113.011719 71.6875 114.46875 72.34375 115.851562 72.527344 C 106.015625 79.164062 96.9375 86.84375 90.042969 96.507812 C 89.84375 96.792969 90.269531 97.105469 90.480469 96.824219"/><path d="M 124.453125 87.890625 C 123.570312 88.121094 122.703125 88.375 121.847656 88.644531 C 122.359375 87.699219 123.023438 86.5 123.890625 84.992188 C 124.277344 87.628906 125.101562 86.34375 124.453125 87.890625"/><path d="M 119.335938 89.496094 C 120.246094 87.730469 121.28125 85.789062 122.464844 83.636719 C 123.070312 83.269531 123.664062 82.832031 124.226562 82.363281 C 123.636719 83.800781 122.332031 86.066406 120.921875 88.941406 C 120.386719 89.117188 119.859375 89.304688 119.335938 89.496094"/><path d="M 68.746094 73.722656 C 88.007812 60.011719 98.214844 56.015625 104.886719 52.464844 C 107.007812 53.488281 107.171875 52.636719 104.488281 54.15625 C 103.8125 54.5625 103.597656 55.332031 103.75 56.269531 C 88.574219 64.101562 71.023438 79.777344 65.390625 79.597656 C 64.066406 79.578125 63.179688 78.789062 63.320312 77.382812 C 63.578125 74.777344 66.773438 71.84375 68.816406 70.210938 C 74.417969 65.832031 90.050781 56.117188 102.296875 50.765625 C 102.824219 51.230469 103.414062 51.65625 104.050781 52.027344 C 91.542969 57.210938 79.1875 65.246094 68.433594 73.292969 C 68.152344 73.5 68.460938 73.921875 68.746094 73.722656"/><path d="M 84.066406 91.78125 C 89.15625 81.742188 99.496094 72.453125 109.070312 66.667969 C 109.46875 66.429688 108.550781 67.914062 111.136719 70.242188 C 96.433594 78.753906 84.898438 95.550781 81.371094 98.601562 C 77.148438 102.191406 74.640625 100.714844 76.621094 94.757812 C 81.453125 81.390625 95.011719 70.757812 108.273438 62.160156 C 111.878906 64.4375 112.449219 62.648438 110.414062 64.398438 C 108.839844 65.769531 91.285156 75.523438 83.585938 91.546875 C 83.433594 91.863281 83.90625 92.09375 84.066406 91.78125"/><path d="M 70.984375 86.636719 C 83.128906 75.9375 92.324219 68.664062 106.601562 60.875 C 107.789062 61.964844 108.097656 60.542969 101.054688 65.902344 C 80.910156 79.542969 82.292969 84.902344 74.429688 89.761719 C 72.636719 90.890625 69.265625 92.53125 67.261719 91.828125 C 66.554688 91.542969 66.402344 91.054688 66.21875 90.371094 C 64.832031 84.082031 74.367188 77.28125 78.644531 73.878906 C 85.824219 68.335938 96.273438 62.042969 104.128906 57.515625 C 104.46875 58.488281 104.960938 59.140625 105.867188 60.136719 C 92.71875 67.007812 81.9375 75.867188 70.628906 86.238281 C 70.367188 86.472656 70.722656 86.867188 70.984375 86.636719"/><path d="M 113.746094 91.878906 C 115.417969 88.28125 116.90625 85.246094 117.414062 84.546875 C 118.816406 85.0625 119.917969 84.828125 120.921875 84.425781 C 119.972656 86.179688 119.015625 88.019531 118.054688 89.976562 C 116.578125 90.558594 115.140625 91.191406 113.746094 91.878906"/><path d="M 86.5625 134.886719 C 86.644531 139.394531 87.382812 144.03125 88.835938 148.710938 C 87.917969 149.546875 86.957031 150.308594 86.25 150.675781 C 85.734375 150.933594 83.902344 151.382812 83.5625 150.96875 C 82.859375 150.132812 83.851562 143.949219 86.5625 134.886719"/><path d="M 163.664062 98.839844 C 162.519531 97.902344 161.441406 97.015625 160.324219 96.140625 C 160.394531 95.316406 160.480469 94.503906 160.566406 93.722656 C 162.296875 91.492188 163.773438 88.84375 164.191406 86.0625 C 164.441406 87.730469 164.773438 89.671875 165.605469 91.023438 C 165.597656 91.070312 165.089844 95.53125 164.707031 99.988281 C 164.347656 99.503906 163.980469 99.101562 163.664062 98.839844"/><path d="M 164.582031 108.886719 C 164.847656 108.886719 164.8125 109.054688 164.90625 107.574219 C 165.179688 107.132812 165.476562 106.679688 165.828125 106.214844 C 166.871094 104.832031 166.351562 102.796875 165.460938 101.164062 C 165.699219 98.859375 166.03125 95.875 166.515625 92.003906 C 166.726562 92.160156 166.863281 92.253906 167.09375 92.347656 C 166.632812 96.667969 166.355469 100.152344 166.796875 100.164062 C 167.246094 100.179688 166.90625 100.191406 167.929688 92.488281 C 169.375 92.457031 170.285156 91.226562 171.199219 89.992188 C 170.960938 90.316406 171.003906 91.363281 170.9375 91.78125 C 170.625 93.683594 168.429688 104.265625 167.316406 108.621094 C 166.503906 111.8125 164.773438 112.046875 163.214844 110.601562 C 163.59375 109.972656 163.953125 109.257812 164.378906 108.480469 C 164.425781 108.742188 164.492188 108.890625 164.582031 108.886719"/><path d="M 177.1875 53.59375 C 176.839844 52.074219 174.664062 43.175781 174.132812 40.886719 C 178.996094 39.859375 196.347656 39.859375 201.210938 40.886719 C 200.625 43.394531 198.515625 52.011719 198.15625 53.59375 C 194.59375 54.398438 180.753906 54.398438 177.1875 53.59375"/><path d="M 196.886719 56.195312 C 196.765625 72.511719 196.398438 121.523438 195.992188 175.550781 C 190.925781 172.9375 185.210938 171.105469 179.609375 169.714844 C 179.21875 118.054688 178.871094 71.980469 178.753906 56.226562 C 183.945312 56.730469 192.097656 56.695312 196.886719 56.195312"/><g clip-path="url(#f)"><path d="M 173.539062 38.582031 C 171.589844 36.867188 169.894531 34.742188 168.589844 32.191406 C 161.300781 17.933594 171.667969 0.960938 187.683594 0.960938 C 193.398438 0.960938 198.757812 3.179688 202.8125 7.246094 C 211.738281 16.179688 210.90625 30.558594 201.800781 38.582031 C 196.6875 37.410156 178.265625 37.5 173.539062 38.582031"/></g><path d="M 211.167969 86.0625 C 211.589844 88.84375 213.066406 91.492188 214.796875 93.722656 C 214.875 94.445312 214.953125 95.195312 215.023438 95.960938 C 214.132812 96.644531 211.230469 98.972656 210.625 99.621094 C 210.246094 95.292969 209.761719 91.070312 209.757812 91.023438 C 210.589844 89.671875 210.917969 87.730469 211.167969 86.0625"/><path d="M 213.09375 111.636719 C 213.511719 112.363281 214.097656 112.96875 215.253906 113.308594 C 215.5 113.738281 216.4375 114.878906 217.277344 115.542969 C 217.605469 119.253906 218.183594 125.726562 218.292969 126.859375 C 218.328125 129.671875 218.449219 139.257812 215.746094 138.617188 C 211.359375 137.410156 209.253906 132.441406 208.34375 127.996094 C 208.175781 127.191406 206.75 118.25 205.71875 110.5 C 206.050781 109.839844 206.296875 109.109375 206.476562 108.34375 C 207.628906 110.335938 209.164062 112.773438 210.238281 112.707031 C 210.410156 115.246094 210.605469 118.136719 210.804688 119.71875 C 210.84375 120.019531 211.296875 119.976562 211.273438 119.671875 C 211.082031 116.855469 210.914062 114.527344 210.847656 112.78125 C 211.21875 112.6875 211.675781 112.4375 212.0625 112.214844 C 212.746094 119.132812 213.65625 126.460938 214.324219 131.519531 C 214.367188 131.824219 214.828125 131.769531 214.792969 131.460938 C 214.234375 126.226562 213.226562 114.652344 212.914062 111.898438 C 212.96875 111.8125 213.027344 111.722656 213.09375 111.636719"/><path d="M 211.03125 108.089844 C 211.742188 108.800781 212.128906 109.566406 212.453125 110.292969 C 210.820312 112.066406 208.914062 112.023438 208.042969 108.621094 C 206.933594 104.265625 204.734375 93.683594 204.425781 91.78125 C 204.355469 91.363281 204.402344 90.316406 204.160156 89.992188 C 205.074219 91.226562 205.984375 92.457031 207.433594 92.488281 C 208.453125 100.191406 208.117188 100.179688 208.566406 100.164062 C 209.003906 100.152344 208.730469 96.667969 208.265625 92.347656 C 208.5 92.253906 208.636719 92.160156 208.847656 92.003906 C 209.296875 95.617188 209.621094 98.457031 209.851562 100.695312 C 208.710938 102.832031 208.894531 105.867188 210.453125 107.523438 C 210.546875 109.058594 210.511719 108.886719 210.777344 108.886719 C 210.90625 108.890625 210.988281 108.597656 211.03125 108.089844"/><path d="M 227.765625 116.015625 C 228.910156 123.835938 230.457031 135.574219 229.855469 138.378906 C 229.683594 139.175781 228.332031 140.8125 226.957031 140.5 C 225.855469 140.226562 224.605469 139.214844 223.5 137.683594 C 219.015625 131.480469 218.867188 123.871094 218.476562 116.277344 C 219.441406 116.707031 220.472656 116.796875 221.726562 116.703125 C 223.195312 116.632812 224.539062 116.261719 225.574219 116.074219 C 226.429688 121.382812 227.171875 126.953125 227.625 133.628906 C 227.648438 133.957031 228.140625 133.925781 228.125 133.597656 C 227.78125 126.933594 227.125 121.265625 226.347656 115.972656 C 226.777344 115.949219 227.175781 115.976562 227.765625 116.015625"/><path d="M 250.199219 114.132812 C 251.992188 114.664062 253.691406 115.363281 255.261719 116.238281 C 260.757812 132.914062 260.199219 132.386719 263.265625 143.535156 C 262.386719 145.828125 261.28125 147.898438 259.503906 150.027344 C 258.234375 147.511719 257.75 146.546875 257.328125 145.332031 C 256.183594 142.195312 251.558594 122.492188 250.199219 114.132812"/><path d="M 202.929688 88.113281 C 203.339844 93.21875 204.734375 98.648438 205.546875 103.519531 C 205.847656 106.144531 205.207031 111.167969 202.8125 111.578125 C 201.128906 111.878906 199.84375 111.523438 198.863281 110.722656 C 198.910156 104.417969 198.957031 98.457031 199 92.910156 C 199.5625 100.882812 200.859375 105.667969 200.683594 104.972656 C 200.75 105.234375 201.136719 105.160156 201.105469 104.894531 C 200.457031 99.59375 200.09375 95.316406 199.878906 91.914062 C 201.304688 90.972656 201.917969 88.488281 202.128906 86.796875 C 202.351562 87.195312 202.660156 87.6875 202.929688 88.113281"/><path d="M 198.851562 112.335938 C 199.25 112.546875 199.679688 112.710938 200.152344 112.816406 C 199.925781 120.59375 200.730469 127.257812 202.257812 135.023438 C 202.324219 135.351562 202.8125 135.257812 202.753906 134.9375 C 201.058594 125.359375 200.777344 118.859375 201.011719 112.949219 C 202.878906 113.121094 204.023438 112.644531 204.785156 111.878906 C 205.792969 121.140625 207.804688 132.726562 206.96875 137.925781 C 206.71875 139.601562 205.546875 141.949219 203.882812 141.085938 C 201.796875 140.058594 199.851562 138.054688 198.675781 135.960938 C 198.734375 127.714844 198.796875 119.796875 198.851562 112.335938"/><path d="M 199.011719 91.046875 C 199.058594 84.601562 199.105469 78.753906 199.144531 73.628906 C 199.972656 78.457031 201.117188 83.855469 201.003906 85.710938 C 200.886719 87.460938 200.355469 90.113281 199.011719 91.046875"/><path d="M 239.320312 114.015625 C 242.507812 129.734375 243.355469 147.222656 240.394531 148.269531 C 239.207031 148.695312 238.167969 148.03125 237.402344 147.011719 C 235.121094 144 232.550781 137.511719 231.707031 133.890625 C 231.113281 131.476562 230.265625 124.347656 229.03125 116.089844 C 231.386719 116.203125 233.199219 116.054688 235.390625 115.480469 C 236.363281 121.335938 237.386719 127.707031 238.640625 136.984375 C 238.6875 137.3125 239.179688 137.25 239.140625 136.921875 C 238.03125 127.730469 237.074219 121.0625 236.179688 115.257812 C 237.324219 114.90625 238.394531 114.480469 239.320312 114.015625"/><path d="M 248.785156 151.050781 C 242.371094 138.136719 244.398438 131.574219 240.332031 113.464844 C 241.40625 112.816406 241.222656 112.859375 242.238281 112.898438 C 243.625 119.210938 245.28125 126.472656 247.265625 134.8125 C 247.34375 135.136719 247.828125 135.023438 247.757812 134.703125 C 246.25 127.878906 244.660156 120.484375 243.101562 112.9375 C 243.445312 112.957031 243.785156 112.980469 244.121094 113.011719 C 244.714844 115.398438 246.042969 123.292969 251.925781 148.398438 C 252.003906 148.726562 252.488281 148.609375 252.417969 148.289062 C 250.257812 138.507812 247.679688 126.105469 245.117188 113.113281 C 246.308594 113.253906 247.472656 113.453125 248.605469 113.71875 C 249.976562 119.988281 252.714844 131.894531 257.050781 152.554688 C 255.53125 153.90625 253.824219 155.097656 251.960938 156.160156 C 251.292969 155.300781 250.621094 154.679688 248.785156 151.050781"/><path d="M 261.460938 121.570312 C 262.667969 125.472656 263.964844 129.382812 265.226562 133.15625 C 265.246094 136.058594 264.78125 139.183594 263.648438 142.476562 C 261.46875 133.984375 260.371094 129.042969 256.496094 116.984375 C 258.398438 118.21875 260.078125 119.742188 261.460938 121.570312"/><path d="M 176.476562 110.742188 C 175.5 111.527344 174.222656 111.878906 172.550781 111.578125 C 170.15625 111.167969 169.511719 106.144531 169.8125 103.519531 C 170.632812 98.648438 172.019531 93.21875 172.433594 88.113281 C 172.703125 87.6875 173.007812 87.195312 173.234375 86.796875 C 173.441406 88.488281 174.058594 90.972656 175.480469 91.914062 C 175.269531 95.316406 174.902344 99.59375 174.257812 104.894531 C 174.222656 105.160156 174.613281 105.234375 174.679688 104.972656 C 174.503906 105.660156 175.769531 100.992188 176.34375 93.1875 C 176.386719 98.660156 176.429688 104.539062 176.476562 110.742188"/><path d="M 176.667969 136 C 175.488281 138.078125 173.550781 140.066406 171.476562 141.085938 C 169.8125 141.949219 168.640625 139.601562 168.394531 137.925781 C 167.558594 132.726562 169.570312 121.140625 170.578125 111.878906 C 171.335938 112.644531 172.484375 113.121094 174.347656 112.949219 C 174.582031 118.859375 174.300781 125.359375 172.609375 134.9375 C 172.550781 135.257812 173.039062 135.351562 173.101562 135.023438 C 174.632812 127.257812 175.4375 120.59375 175.210938 112.816406 C 175.671875 112.714844 176.097656 112.554688 176.488281 112.347656 C 176.542969 119.816406 176.605469 127.742188 176.667969 136"/><path d="M 176.199219 73.753906 C 176.238281 78.84375 176.28125 84.640625 176.328125 91.027344 C 175 90.085938 174.476562 87.453125 174.359375 85.710938 C 174.246094 83.871094 175.367188 78.546875 176.199219 73.753906"/><path d="M 128.09375 134.8125 C 130.0625 126.542969 131.710938 119.328125 133.089844 113.050781 C 133.324219 113.039062 133.5625 113.027344 133.796875 113.023438 C 134.199219 113.246094 134.65625 113.398438 135.007812 113.558594 C 130.972656 131.597656 132.976562 138.160156 126.578125 151.050781 C 124.792969 154.578125 124.039062 155.335938 123.394531 156.167969 C 121.53125 155.109375 119.824219 153.917969 118.308594 152.570312 C 122.59375 132.15625 125.316406 120.28125 126.707031 113.949219 C 127.84375 113.671875 129.015625 113.457031 130.207031 113.304688 C 127.660156 126.226562 125.097656 138.554688 122.945312 148.289062 C 122.875 148.609375 123.359375 148.726562 123.433594 148.398438 C 129.183594 123.882812 130.582031 115.78125 131.195312 113.1875 C 131.539062 113.152344 131.882812 113.125 132.226562 113.101562 C 130.679688 120.59375 129.101562 127.925781 127.605469 134.703125 C 127.535156 135.023438 128.015625 135.136719 128.09375 134.8125"/><path d="M 27 146.011719 C 29.4375 123.890625 34.828125 101.269531 46.300781 82.28125 C 49.226562 77.871094 52.554688 73.777344 56.53125 69.882812 C 57.660156 71.613281 60.398438 72.820312 64.023438 71.878906 C 53.496094 80.273438 45.3125 92.078125 38.613281 114.84375 C 31.839844 137.859375 32.996094 157.980469 28.707031 176.109375 C 28.628906 176.429688 29.113281 176.550781 29.195312 176.226562 C 34.851562 153.0625 32.496094 102.832031 61.492188 75.136719 C 66.851562 70.1875 60.164062 75.714844 62.292969 79.421875 C 53.277344 90.679688 44.328125 112.058594 40.910156 126.554688 C 37.292969 144.808594 40.898438 158.898438 31.082031 179.851562 C 29.429688 183.277344 28.601562 184.347656 27.632812 185.6875 C 25.832031 188.269531 21.664062 195.078125 17.84375 193.929688 C 16.5 193.527344 16.847656 191.746094 17.660156 189.398438 C 21.402344 178.578125 22.75 184.269531 27 146.011719"/><path d="M 78.003906 101.976562 C 79.589844 101.804688 81.246094 100.628906 82.441406 99.574219 C 82.453125 99.804688 82.472656 100.027344 82.511719 100.238281 C 76.28125 111.132812 70.710938 126.964844 69.207031 132.914062 C 68.464844 135.75 68.007812 138.640625 67.605469 141.519531 C 67.585938 141.65625 67.683594 141.78125 67.820312 141.800781 C 68.503906 141.898438 67.933594 139.84375 69.804688 133.066406 C 71.316406 127.386719 77 111.925781 82.972656 101.367188 C 83.519531 102.191406 84.484375 102.722656 85.894531 102.867188 C 84.5 106.359375 84.03125 106.789062 81.710938 112.703125 C 73.230469 134.320312 72.589844 140.996094 71.375 142.160156 C 68.375 145.054688 62.679688 151.886719 62.308594 147.074219 C 62.195312 145.148438 63.445312 139.214844 63.917969 137.164062 C 66.53125 125.726562 72.710938 112.492188 78.003906 101.976562"/><path d="M 38.800781 175.457031 C 36.097656 175.132812 37.164062 173.636719 37.984375 163.976562 C 40.132812 154.871094 40.148438 141.792969 41.230469 132.179688 C 44.789062 111.78125 54.792969 91.375 63.597656 80.636719 C 65.679688 81.671875 68.300781 80.515625 70.414062 79.445312 C 68.636719 80.976562 67.058594 82.632812 65.988281 84.449219 C 55.582031 97.554688 47.855469 119.898438 45.394531 137.503906 C 44.101562 146.300781 43.730469 155.183594 42.640625 163.945312 C 42.597656 164.273438 43.09375 164.335938 43.136719 164.007812 C 44.308594 155.222656 44.753906 146.351562 46.117188 137.609375 C 48.40625 122.382812 54.859375 101.871094 64.703125 87.820312 C 64.164062 90.863281 65.125 93.417969 68.195312 93.496094 C 58.492188 108.34375 53.242188 121.839844 49.414062 139.238281 C 48.613281 143.433594 47.175781 155.285156 48.117188 158.214844 C 47.367188 161.484375 45.191406 167.613281 43.398438 170.128906 C 42.191406 172.09375 40.714844 175.671875 38.800781 175.457031"/><path d="M 69.160156 93.445312 C 71.828125 93.117188 74.949219 91.308594 77.207031 89.617188 C 76.691406 90.601562 76.21875 91.605469 75.808594 92.628906 C 68.933594 102.378906 63.519531 113.292969 58.972656 124.839844 C 56.136719 131.703125 54.550781 139.003906 53.234375 146.253906 C 53.175781 146.582031 53.664062 146.671875 53.726562 146.34375 C 55.117188 139.113281 56.769531 131.886719 59.652344 125.109375 C 64.542969 113.113281 69.457031 103.675781 74.789062 95.710938 C 74.152344 98.3125 74.28125 101.375 76.882812 101.925781 C 71.871094 111.253906 64.550781 127.101562 62.304688 136.964844 C 60.976562 143.214844 60.707031 143.378906 60.363281 145.082031 C 59.25 150.339844 53.925781 157.832031 52.070312 159.160156 C 45.492188 163.761719 49.894531 123.5 69.160156 93.445312"/><path d="M 110.066406 133.363281 C 111.375 129.449219 112.722656 125.386719 113.972656 121.335938 C 115.308594 119.722656 116.941406 118.332031 118.804688 117.179688 C 114.96875 129.117188 113.878906 134.042969 111.703125 142.515625 C 110.589844 139.300781 110.078125 136.222656 110.066406 133.363281"/><path d="M 125.121094 114.378906 C 123.714844 122.867188 119.167969 142.226562 118.035156 145.332031 C 117.613281 146.550781 117.125 147.515625 115.851562 150.042969 C 114.082031 147.925781 112.96875 145.867188 112.085938 143.566406 C 115.152344 132.4375 114.605469 132.925781 120.019531 116.476562 C 121.601562 115.621094 123.316406 114.921875 125.121094 114.378906"/><path d="M 168.160156 84.6875 C 168.175781 84.832031 168.308594 84.941406 168.453125 84.925781 C 169.363281 84.832031 167.464844 80.328125 170.820312 72.988281 C 172.429688 69.828125 172.546875 69.230469 172.511719 69.328125 C 172.605469 69.050781 172.234375 68.863281 172.070312 69.101562 C 169.15625 73.273438 167.394531 77.140625 168.160156 84.6875 Z M 160.578125 73.050781 C 160.628906 72.765625 160.242188 72.632812 160.105469 72.886719 C 157.292969 78.265625 155.734375 81.488281 156.964844 88.421875 C 156.988281 88.566406 157.128906 88.664062 157.273438 88.636719 C 158.171875 88.480469 155.851562 84.941406 159.230469 76.859375 C 160.511719 74.105469 160.597656 72.953125 160.578125 73.050781 Z M 134.140625 72.125 C 132.738281 74.214844 128.546875 78.804688 128.28125 83.996094 C 128.265625 84.332031 128.757812 84.382812 128.8125 84.054688 C 129.761719 78.269531 133.804688 75.441406 134.554688 72.441406 C 134.667969 71.980469 134.28125 71.914062 134.140625 72.125 Z M 133.285156 39.90625 C 130.375 44.980469 120.050781 33.242188 119.421875 34.078125 C 119.328125 34.207031 119.367188 34.355469 119.472656 34.453125 C 122.433594 37.1875 128.289062 43.28125 132 41.957031 C 132.855469 41.664062 133.523438 40.980469 133.75 40.09375 C 133.820312 39.8125 133.433594 39.652344 133.285156 39.90625 Z M 109.804688 46.039062 C 104.898438 46.40625 104.566406 45.988281 104.5625 46.484375 C 104.5625 46.78125 104.917969 46.761719 104.820312 46.753906 C 108.597656 47.027344 118.515625 46.433594 119.941406 46.324219 C 123.414062 46.175781 125.074219 45.675781 124.972656 45.699219 C 125.265625 45.628906 125.214844 45.195312 124.910156 45.195312 C 119.097656 45.242188 117.269531 45.464844 109.804688 46.039062 Z M 114.96875 56.664062 C 110.9375 57.199219 110.242188 56.730469 110.25 57.261719 C 110.257812 57.546875 110.613281 57.527344 110.515625 57.523438 C 114.546875 57.761719 120.933594 56.808594 124.117188 56.128906 C 127.226562 55.574219 128.636719 54.761719 128.535156 54.808594 C 128.800781 54.679688 128.671875 54.273438 128.382812 54.328125 C 118.125 56.210938 118.503906 56.171875 114.96875 56.664062 Z M 113.996094 68.265625 C 114.09375 68.539062 114.429688 68.402344 114.328125 68.429688 C 131.933594 63.648438 131.503906 60.617188 130.480469 61.21875 C 124.46875 64.753906 113.769531 67.628906 113.996094 68.265625 Z M 114.902344 30.296875 C 109.675781 28.449219 106.132812 27.828125 100.683594 31.140625 C 100.394531 31.316406 100.632812 31.753906 100.933594 31.609375 C 108.402344 28.03125 110.949219 30.722656 114.816406 30.785156 C 115.097656 30.789062 115.171875 30.390625 114.902344 30.296875 Z M 115.605469 37.714844 C 108.785156 37.542969 109.285156 37.898438 103.457031 37.871094 C 99.921875 37.820312 99.285156 37.226562 99.207031 37.757812 C 99.164062 38.050781 99.527344 38.085938 99.421875 38.058594 C 102.832031 38.886719 108.121094 38.851562 111.59375 38.683594 C 114.441406 38.65625 115.765625 38.183594 115.664062 38.210938 C 115.945312 38.136719 115.894531 37.722656 115.605469 37.714844 Z M 128.835938 69.125 C 127.269531 70.703125 124.496094 72.640625 121.820312 76.027344 C 119.703125 78.640625 119.546875 78.734375 119.84375 78.957031 C 119.953125 79.039062 120.105469 79.023438 120.195312 78.925781 C 127.375 71.242188 128.246094 71.558594 129.179688 69.511719 C 129.375 69.089844 129.015625 68.941406 128.835938 69.125 Z M 176.144531 66.785156 C 172.703125 67.777344 172.128906 64.871094 171.828125 65.28125 C 171.054688 66.324219 171.699219 68.207031 175.277344 68.25 C 175.519531 68.25 175.761719 68.222656 176.003906 68.175781 C 175.160156 73.449219 174.605469 76.179688 173.28125 83.011719 C 172.75 85.753906 169.109375 91.894531 167.53125 90.886719 C 166.9375 90.53125 166.570312 89.625 166.355469 88.96875 C 162.285156 76.640625 168.195312 71.070312 167.101562 70.609375 C 166.949219 70.542969 166.816406 70.625 166.75 70.757812 C 165.855469 72.636719 165.125 74.433594 164.617188 76.273438 C 164.628906 75.285156 164.652344 74.371094 164.699219 73.589844 C 164.710938 73.378906 164.402344 73.332031 164.355469 73.542969 C 162.378906 82.199219 164.546875 87.683594 158.375 94.070312 C 158.25 94.203125 158.125 94.304688 158 94.390625 C 157.125 93.757812 156.195312 93.117188 155.179688 92.457031 C 154.597656 90.953125 154.398438 87.640625 154.351562 86.035156 C 154.148438 77.453125 155.753906 74.890625 154.996094 74.753906 C 154.625 74.6875 154.363281 76.144531 154.246094 76.699219 C 152.460938 81.800781 153.414062 87.476562 152.515625 90.808594 C 149.984375 89.308594 146.949219 87.722656 146.519531 87.523438 C 146.824219 85.882812 147.359375 83.90625 148.3125 81.5625 C 149.824219 78.253906 149.996094 77.691406 149.957031 77.789062 C 150.0625 77.515625 149.695312 77.3125 149.523438 77.550781 C 147.363281 80.488281 146.148438 83.886719 145.667969 87.203125 C 144.945312 86.96875 143.945312 86.714844 142.75 86.5 C 143.296875 83.316406 144.363281 80.074219 144.652344 76.699219 C 144.679688 76.375 144.175781 76.277344 144.128906 76.671875 C 143.820312 79.238281 142.75 82.0625 141.75 86.339844 C 139.957031 86.082031 138.382812 86 136.742188 86.023438 C 137.824219 80.433594 140.40625 78.683594 141.152344 75.808594 C 141.273438 75.355469 140.875 75.285156 140.738281 75.496094 C 138.671875 78.632812 136.519531 81.457031 135.972656 86.042969 C 135.171875 86.070312 134.316406 86.128906 133.410156 86.21875 C 134.332031 81.339844 136.683594 77.601562 138.414062 73.363281 C 138.519531 73.105469 138.207031 72.886719 138.007812 73.058594 C 137.945312 73.054688 137.878906 73.074219 137.84375 73.148438 C 135.972656 77.09375 133.582031 80.429688 132.449219 84.664062 C 132.253906 85.40625 131.84375 86.007812 131.328125 86.46875 C 130.03125 86.660156 128.621094 86.914062 127.089844 87.253906 C 126.90625 87.171875 126.730469 87.078125 126.574219 86.960938 C 125.5625 86.183594 125.238281 84.585938 125.441406 83.503906 C 126.734375 79.019531 131.28125 70.519531 131.582031 69.996094 C 131.972656 69.3125 131.398438 69.398438 131.3125 69.453125 C 131.226562 69.5 129.085938 73.320312 127.515625 75.980469 C 125.964844 78.554688 126.234375 78.308594 124.261719 80.324219 C 119.695312 84.933594 116.546875 83.6875 116.039062 80.667969 C 115.15625 75.4375 122.597656 69.875 123.164062 69.335938 C 125.882812 67.628906 128.410156 65.855469 130.382812 63.6875 C 130.519531 63.535156 130.316406 63.308594 130.148438 63.433594 C 127.277344 65.597656 123.984375 67.238281 120.820312 69.09375 C 117.816406 70.859375 117.75 70.945312 117.292969 71.039062 C 114.449219 71.695312 109.496094 67.914062 110.882812 66.03125 C 114.4375 62.242188 123.519531 61.265625 128.546875 58.460938 C 128.832031 58.304688 128.636719 57.828125 128.273438 58.015625 C 123.769531 60.296875 119.308594 60.785156 114.570312 61.804688 C 108.65625 63.078125 103.75 56.269531 105.234375 55.402344 C 111.28125 51.878906 118.101562 51.722656 127.265625 50.542969 C 127.589844 50.5 127.574219 49.984375 127.175781 50.023438 C 124.558594 50.261719 111.566406 51.253906 109.234375 52.023438 C 104.324219 51.886719 98.089844 46.636719 103.203125 43.640625 C 103.75 43.34375 103.292969 43.703125 106.433594 43.832031 C 110.667969 43.792969 115.160156 41.691406 119.433594 41.167969 C 119.636719 41.144531 119.640625 40.847656 119.433594 40.820312 C 116.605469 40.5 113.492188 41.171875 110.738281 41.765625 C 106.050781 42.761719 105.523438 42.316406 102.21875 41.859375 C 100.640625 41.5625 98.8125 41.164062 97.457031 40.320312 C 95.136719 38.851562 95.738281 36.527344 97.34375 35.6875 C 98.320312 35.164062 99.515625 34.972656 100.6875 34.734375 C 103.328125 35.253906 105.644531 34.125 112.015625 34.472656 C 116.492188 34.671875 117.203125 35.800781 117.410156 35.207031 C 117.808594 34.066406 107.472656 32.804688 105.398438 33.058594 C 101.945312 33.449219 101.207031 33.960938 98.042969 31.976562 C 97.859375 31.855469 97.589844 31.09375 97.910156 30.464844 C 98.140625 29.996094 98.578125 29.855469 99.011719 29.714844 C 102.257812 28.890625 107.484375 25.648438 114.738281 28.03125 C 114.945312 28.101562 115.0625 27.796875 114.859375 27.710938 C 107.777344 24.636719 101.792969 27.671875 98.789062 28.394531 C 98.574219 28.453125 98.285156 28.484375 98.046875 28.601562 C 96.835938 29.066406 96.320312 30.210938 96.328125 31.269531 C 93.621094 31.261719 90.308594 30.308594 88.636719 29.40625 C 86.9375 28.503906 84.855469 26.074219 85.652344 25.921875 C 86.660156 25.71875 87.65625 26.683594 91.964844 26.195312 C 95.191406 25.828125 99.117188 24.761719 102.03125 24.429688 C 103.757812 24.226562 104.847656 24.339844 107.042969 24.433594 C 121.921875 25.207031 136.945312 27.433594 139.324219 42.113281 C 140.832031 50.785156 134.765625 55.558594 134.691406 61.667969 C 134.769531 68.828125 141.261719 74.496094 149.003906 73.230469 C 152.445312 72.582031 155.105469 70.238281 157.492188 67.652344 C 162.507812 62.210938 163.421875 59.515625 169.175781 58.324219 C 171.265625 57.890625 173.671875 57.828125 176.082031 58.132812 C 176.097656 60.519531 176.121094 63.425781 176.144531 66.785156"/><path d="M 136.71875 136.984375 C 137.972656 127.726562 138.992188 121.367188 139.964844 115.523438 C 142.515625 116.175781 144.664062 116.171875 146.332031 116.085938 C 145.09375 124.34375 144.246094 131.476562 143.652344 133.890625 C 142.8125 137.511719 140.242188 144 137.957031 147.011719 C 137.191406 148.03125 136.152344 148.695312 134.96875 148.269531 C 132.011719 147.226562 132.851562 129.773438 136.03125 114.066406 C 137.132812 114.601562 138.183594 115.003906 139.175781 115.300781 C 138.285156 121.097656 137.328125 127.757812 136.21875 136.921875 C 136.179688 137.25 136.675781 137.3125 136.71875 136.984375"/><path d="M 161.035156 131.519531 C 161.703125 126.460938 162.617188 119.132812 163.300781 112.214844 C 163.6875 112.4375 164.144531 112.6875 164.515625 112.78125 C 164.445312 114.527344 164.277344 116.855469 164.089844 119.671875 C 164.066406 119.976562 164.519531 120.019531 164.558594 119.71875 C 164.753906 118.136719 164.953125 115.246094 165.121094 112.707031 C 166.195312 112.773438 167.730469 110.335938 168.886719 108.34375 C 169.066406 109.109375 169.3125 109.839844 169.640625 110.5 C 168.609375 118.25 167.1875 127.191406 167.019531 127.996094 C 166.109375 132.441406 164.003906 137.410156 159.617188 138.617188 C 156.910156 139.257812 157.03125 129.671875 157.070312 126.859375 C 157.179688 125.710938 157.769531 119.058594 158.097656 115.378906 C 158.734375 114.875 159.902344 113.59375 160.09375 113.003906 C 161.101562 112.796875 161.796875 112.363281 162.359375 111.765625 C 162.386719 111.808594 162.421875 111.855469 162.449219 111.898438 C 162.136719 114.652344 161.128906 126.226562 160.570312 131.460938 C 160.535156 131.769531 160.996094 131.824219 161.035156 131.519531"/><path d="M 56.417969 60.875 C 66.496094 53.175781 87.519531 45.289062 96.128906 41.160156 C 97.1875 42.109375 98.539062 42.582031 99.964844 42.898438 C 89.753906 46.902344 73.710938 55.085938 68.394531 57.6875 C 65.816406 58.929688 61.679688 60.78125 58.898438 63.082031 C 57.074219 63.800781 54.039062 64.78125 52.296875 64.230469 C 51.5625 63.992188 50.476562 61.710938 50.503906 60.519531 C 50.632812 57.328125 57.257812 55.675781 62.847656 52.742188 C 73.464844 48.132812 85.210938 41.59375 94.679688 37.660156 C 94.519531 38.820312 94.867188 39.675781 95.5 40.484375 C 83.527344 45.355469 64.628906 53.644531 56.089844 60.453125 C 55.816406 60.671875 56.140625 61.085938 56.417969 60.875"/><path d="M 147.738281 133.628906 C 148.191406 126.964844 148.929688 121.402344 149.785156 116.097656 C 151.628906 116.449219 154.390625 117.289062 156.894531 116.125 C 156.496094 123.769531 156.375 131.4375 151.863281 137.683594 C 150.757812 139.214844 149.507812 140.226562 148.402344 140.5 C 147.03125 140.8125 145.679688 139.175781 145.507812 138.378906 C 144.90625 135.574219 146.453125 123.824219 147.597656 116.003906 C 148.113281 115.972656 148.621094 115.941406 149.015625 115.980469 C 148.234375 121.269531 147.578125 126.933594 147.234375 133.597656 C 147.21875 133.925781 147.714844 133.957031 147.738281 133.628906"/><path d="M 89.1875 31.226562 C 72.605469 36.28125 61.078125 48.921875 52.117188 49.359375 C 51.769531 49.375 51.785156 49.902344 52.136719 49.894531 C 61.792969 49.570312 72.785156 36.828125 90.886719 31.855469 C 92.746094 32.390625 94.738281 32.535156 96.519531 32.28125 C 96.757812 32.882812 96.949219 33.082031 97.867188 33.601562 C 98.296875 33.851562 98.6875 34.042969 99.066406 34.207031 C 97.382812 34.460938 95.78125 34.910156 95.023438 36.496094 C 70.257812 45.515625 53.300781 59.40625 46.050781 53.671875 C 44.585938 52.527344 44.582031 51.089844 45.523438 50.363281 C 46.4375 49.574219 47.5 49.945312 52.457031 47.269531 C 57.464844 44.5625 69.167969 35.511719 87.265625 30.125 C 87.851562 30.546875 88.492188 30.917969 89.1875 31.226562"/><g clip-path="url(#g)"><path d="M 48.898438 61.367188 C 48.855469 63.136719 50.371094 65.4375 52.398438 65.792969 C 16.878906 99.960938 21.453125 148.867188 13.304688 177.015625 C 11.148438 184.339844 9.425781 185.4375 9.960938 185.753906 C 10.078125 185.824219 10.234375 185.785156 10.304688 185.664062 C 21.523438 166.632812 15.929688 116.550781 40.875 80.539062 C 45.085938 74.554688 49.476562 69.867188 53.65625 65.878906 C 57.378906 65.773438 57.058594 64.53125 56.34375 66.144531 C 56.023438 66.871094 55.902344 67.558594 55.953125 68.191406 C 33.722656 89.078125 26.191406 128.261719 23.605469 158.527344 C 22.902344 166.417969 21.746094 177.316406 16.726562 184.527344 C 11.253906 192.476562 1.363281 201.183594 -0.0703125 199.675781 C -0.855469 198.820312 0.660156 195.160156 1.441406 193.734375 C 4.648438 187.742188 7.621094 182.972656 9.292969 175.476562 C 13.351562 157.253906 9.761719 120.140625 32.203125 79.382812 C 38.792969 67.558594 49.503906 56.828125 52.898438 56.265625 C 50.570312 57.699219 48.953125 59.296875 48.898438 61.367188"/></g><path d="M 309.140625 90.371094 C 308.960938 91.054688 308.808594 91.542969 308.101562 91.828125 C 306.097656 92.53125 302.722656 90.890625 300.929688 89.761719 C 293.066406 84.902344 294.453125 79.542969 274.308594 65.902344 C 267.265625 60.542969 267.570312 61.964844 268.761719 60.875 C 283.039062 68.664062 292.234375 75.9375 304.375 86.636719 C 304.640625 86.867188 304.992188 86.472656 304.734375 86.238281 C 293.425781 75.867188 282.640625 67.007812 269.496094 60.136719 C 270.402344 59.140625 270.894531 58.488281 271.234375 57.515625 C 279.089844 62.042969 289.535156 68.335938 296.71875 73.878906 C 300.992188 77.28125 310.53125 84.082031 309.140625 90.371094"/></g></g></g><g fill="#F00"><g><g><path d="M 142.167969 -129.515625 C 146.636719 -155.070312 131.5 -172.191406 101.230469 -172.9375 C 72.699219 -173.183594 55.082031 -158.792969 52.601562 -134.726562 C 48.628906 -93.042969 102.71875 -77.90625 100.734375 -43.917969 C 99.742188 -25.804688 89.570312 -15.136719 72.203125 -15.382812 C 53.59375 -15.878906 39.945312 -34.238281 47.886719 -64.261719 C 47.886719 -71.457031 29.277344 -73.9375 25.804688 -68.230469 C 14.140625 -34.238281 24.8125 1.984375 69.96875 2.234375 C 103.710938 2.480469 126.539062 -13.894531 128.277344 -44.660156 C 130.757812 -84.109375 77.90625 -101.726562 80.390625 -133.238281 C 81.382812 -149.863281 91.800781 -155.070312 100.734375 -154.824219 C 113.140625 -154.824219 121.824219 -148.125 120.335938 -130.261719 C 121.578125 -123.066406 139.6875 -122.074219 142.167969 -129.515625 Z M 142.167969 -129.515625" transform="translate(31.799 263.375)"/></g></g></g><g fill="#F00"><g><g><path d="M 130.011719 -172.441406 C 103.710938 -173.929688 82.871094 -162.265625 66.496094 -143.90625 C 61.285156 -152.589844 58.308594 -161.769531 57.5625 -168.222656 C 56.570312 -173.679688 43.421875 -172.9375 44.164062 -167.230469 C 44.660156 -156.5625 49.621094 -143.410156 56.816406 -132.246094 C 44.164062 -113.886719 36.472656 -91.554688 34.984375 -69.222656 C 32.007812 -24.5625 56.320312 3.472656 93.292969 2.480469 C 128.027344 1.488281 149.863281 -14.886719 165.988281 -49.871094 C 167.476562 -52.847656 158.792969 -58.058594 157.304688 -54.832031 C 143.90625 -26.050781 121.578125 -16.625 104.953125 -15.878906 C 80.390625 -13.894531 62.523438 -29.773438 62.773438 -67.734375 C 62.773438 -81.878906 66.246094 -98.003906 72.699219 -112.394531 C 107.433594 -87.089844 152.34375 -98.253906 161.523438 -128.277344 C 169.460938 -151.847656 156.3125 -170.953125 130.011719 -172.441406 Z M 125.546875 -154.078125 C 136.214844 -153.582031 140.679688 -144.15625 135.96875 -133.980469 C 130.507812 -116.117188 100.488281 -112.148438 80.886719 -127.28125 C 92.050781 -143.660156 105.945312 -155.070312 125.546875 -154.078125 Z M 125.546875 -154.078125" transform="translate(179.427 263.375)"/></g></g></g></svg>